<svg xmlns="http://www.w3.org/2000/svg" viewBox="0 0 31 25.75"><defs><style>.cls-1{fill:#0063ff;}.cls-2{fill:#ff00a8;}</style></defs><g id="Layer_2" data-name="Layer 2"><g id="Layer_1-2" data-name="Layer 1"><path class="cls-1" d="M25.57,14.51a3.85,3.85,0,0,0,3.82-3.91,3.82,3.82,0,1,0-3.82,3.91Zm0-6.23A2.32,2.32,0,1,1,23.3,10.6,2.32,2.32,0,0,1,25.57,8.28ZM20.11,18.57A4,4,0,0,1,21,16a3.36,3.36,0,0,1,2.62-1.05h3.87A3.4,3.4,0,0,1,30.11,16,3.54,3.54,0,0,1,31,18.57v.05l-.67,3.16H28.77l.57-3.32A2.43,2.43,0,0,0,28.87,17a2,2,0,0,0-1.44-.48H23.56a1.75,1.75,0,0,0-1.44.48,2.47,2.47,0,0,0-.46,1.42L22,20.55c-.54-.11-1.07-.2-1.61-.29ZM5.47,14.51A3.85,3.85,0,0,0,9.28,10.6,3.85,3.85,0,0,0,5.47,6.7a3.91,3.91,0,0,0,0,7.81Zm0-6.23a2.32,2.32,0,0,1,0,4.64,2.32,2.32,0,0,1,0-4.64ZM0,18.57A4,4,0,0,1,.88,16a3.39,3.39,0,0,1,2.63-1.05H7.37A3.39,3.39,0,0,1,10,16a3.54,3.54,0,0,1,.88,2.59v.05L10.6,20c-.56.06-1.11.13-1.66.21l.29-1.7A2.37,2.37,0,0,0,8.76,17a2,2,0,0,0-1.44-.48H3.45A1.75,1.75,0,0,0,2,17a2.47,2.47,0,0,0-.46,1.42l.56,3.32H.57Zm20.93-6.71v.06l-.67,3.16H18.72l.56-3.32a2.46,2.46,0,0,0-.46-1.48,2,2,0,0,0-1.44-.47H13.51a1.77,1.77,0,0,0-1.44.47,2.47,2.47,0,0,0-.47,1.43L12.17,15H10.62l-.57-3.17a4,4,0,0,1,.88-2.58,3.4,3.4,0,0,1,2.63-1h3.87a3.4,3.4,0,0,1,2.63,1A3.56,3.56,0,0,1,20.93,11.86ZM15.52,7.8a3.85,3.85,0,0,0,3.81-3.9,3.82,3.82,0,1,0-7.63,0A3.89,3.89,0,0,0,15.52,7.8Zm0-6.22A2.32,2.32,0,1,1,13.25,3.9,2.32,2.32,0,0,1,15.52,1.58Z"/><path class="cls-2" d="M30,25.75a.92.92,0,0,1-.28-.05c-9.68-3.91-19.28-3.91-28.43,0a.75.75,0,0,1-1-.4.74.74,0,0,1,.4-1c9.5-4.06,19.52-4.06,29.57,0A.75.75,0,0,1,30,25.75Z"/></g></g></svg>